<svg xmlns="http://www.w3.org/2000/svg" viewBox="0 0 512 512">
  <defs>
    <linearGradient id="g" x1="0" y1="0" x2="1" y2="1">
      <stop offset="0" stop-color="#3aa3ff"/>
      <stop offset="0.45" stop-color="#0072CE"/>
      <stop offset="1" stop-color="#005aa6"/>
    </linearGradient>
  </defs>
  <rect width="512" height="512" rx="118" fill="url(#g)"/>
  <!-- GERÇEK SMC logosu (swoosh + SMC), slogan kesik (nested viewBox 49). Mehmet abi 2026-06-23: ikonda SMC logosu + AMS. -->
  <svg x="106" y="120" width="300" height="73.5" viewBox="0 0 199.9 49" preserveAspectRatio="xMidYMid meet">
    <path fill="#fff" d="M146.3,41.5l-1-1.8h-0.9v1.8H144v-4.2h1.2c0.8,0,1.3,0.4,1.3,1.1c0,0.7-0.4,1.1-0.8,1.2l1.1,1.9H146.3 M145.1,37.6h-0.7v1.7h0.7c0.6,0,1-0.3,1-0.9C146.1,37.9,145.6,37.6,145.1,37.6z"/>
    <path fill="#fff" d="M141.9,39.4c0,1.7,1.4,3.1,3.1,3.1c1.7,0,3.1-1.4,3.1-3.1c0-1.7-1.4-3.1-3.1-3.1C143.3,36.3,141.9,37.7,141.9,39.4 M142.1,39.4c0-1.6,1.3-2.9,2.9-2.9c1.6,0,2.9,1.3,2.9,2.9c0,1.6-1.3,2.9-2.9,2.9C143.4,42.3,142.1,41,142.1,39.4z"/>
    <path fill="#fff" d="M0,23.6C0,10.6,10.6,0,23.7,0c7.1,0,13.5,3.2,17.8,8.2l-15.2,0c-1.9,0-3.9,1.3-4.9,2.3c-1,1-10.6,10.6-11.8,11.8c-1.2,1.2-2.2,1.4-3.8,1.4L0,23.6 M10.4,30.4c1.6,0,2.5-0.2,3.8-1.4C15.4,27.9,25,18.4,26,17.3c1-1,3.1-2.3,4.9-2.3h14.8c-0.7-1.7-1.5-3.3-2.6-4.7l-11.3,0c-1.6,0-3.1,0.9-4,1.7c-0.9,0.9-10.7,10.7-11.7,11.7c0,0-1.7,2.1-5,2.1l-11,0c0.2,1.6,0.5,3.2,0.9,4.7L10.4,30.4z M15.5,37.3c1.6,0,2.5-0.2,3.8-1.4c1.4-1.4,10.7-10.8,11.8-12c1-1,3-2.3,4.9-2.3l11.3,0c-0.1-1.7-0.4-3-0.9-4.6l-9.4,0c-1.6,0-3.2,0.9-4.1,1.7c-1.1,1-10.7,10.6-11.6,11.6c0,0-1.6,2.1-4.9,2.1l-14.5,0c0.7,1.7,1.6,3.3,2.7,4.8L15.5,37.3z M6,39.3c4.3,4.8,10.6,7.9,17.7,7.9c13,0,23.5-10.7,23.6-23.6l-5.8,0c-1.6,0-3.3,0.8-4.1,1.7c-0.9,0.9-10.6,10.9-11.6,11.8c0,0-1.7,2.1-5.1,2.1L6,39.3z M79.5,26.4c-0.9-1.5-2-3.7-7-5c-5.2-1.3-7.3-1.8-8.8-2.1c-1.4-0.3-3.7-1.1-3.7-4.1c0-2.8,2.8-4.2,5.7-4.2c2.8,0,6.5,1.2,7.1,5.5h6.6V26.4z M114.5,6.3h-11.2L97,30.7L90.7,6.3H79.5v7.8c-3.4-9-10.9-9.4-13.2-9.4c-9.8,0-13.3,6.1-13.3,10.6c0,7.2,6,9.5,7.6,9.9c1.4,0.4,8.5,2.1,9.9,2.5c1.7,0.5,3.1,2,3.1,3.9c0,1.7-1.4,4.7-6.5,4.7c-5.1,0-7.6-2.8-8-6.2h-6.9c0,0-0.3,12.5,15.4,12.5c6.7,0,10.2-2.8,12-5.7v4.4h7L86.2,15l7.2,26.2h7.1l7.2-26.2l-0.3,26.2h7v-6.5c1.6,3.2,5.3,7.8,13.2,7.8c9,0,13.5-5.6,14.2-12.6h-6.7c-0.5,3.4-3.5,6.1-7.5,6.1c-1.1,0-8.9-0.6-8.9-12.5c0-8.2,4.2-12.9,8.9-12.9c1.5,0,6.4,0.6,7.1,6.5h6.6c-0.5-8.4-7.4-12.4-13.7-12.4c-7.5,0-11.6,3.9-13.3,7.1V6.3z"/>
  </svg>
  <text x="256" y="406" font-family="'Segoe UI', Arial, sans-serif" font-size="196" font-weight="900" fill="#ffffff" text-anchor="middle" letter-spacing="-6">AMS</text>
</svg>
