<?xml version="1.0" encoding="utf-8" standalone="no"?>
<!-- Generator: Adobe Illustrator 27.0.1, SVG Export Plug-In . SVG Version: 6.00 Build 0)  --><svg xmlns="http://www.w3.org/2000/svg" xmlns:xlink="http://www.w3.org/1999/xlink" id="Capa_1" style="enable-background:new 0 0 199.9 71.1;" version="1.1" viewBox="0 0 199.9 71.1" x="0px" xml:space="preserve" y="0px">
<style type="text/css">
	.st0{fill:#FFFFFF;}
</style>
<g>
	<path class="st0" d="M146.3,41.5l-1-1.8h-0.9v1.8H144v-4.2h1.2c0.8,0,1.3,0.4,1.3,1.1c0,0.7-0.4,1.1-0.8,1.2   l1.1,1.9H146.3 M145.1,37.6h-0.7v1.7h0.7c0.6,0,1-0.3,1-0.9C146.1,37.9,145.6,37.6,145.1,37.6z" id="XMLID_33_"/>
	<path class="st0" d="M141.9,39.4c0,1.7,1.4,3.1,3.1,3.1c1.7,0,3.1-1.4,3.1-3.1c0-1.7-1.4-3.1-3.1-3.1   C143.3,36.3,141.9,37.7,141.9,39.4 M142.1,39.4c0-1.6,1.3-2.9,2.9-2.9c1.6,0,2.9,1.3,2.9,2.9c0,1.6-1.3,2.9-2.9,2.9   C143.4,42.3,142.1,41,142.1,39.4z" id="XMLID_30_"/>
	<g id="XMLID_2_">
		<path class="st0" d="M0,23.6C0,10.6,10.6,0,23.7,0c7.1,0,13.5,3.2,17.8,8.2l-15.2,0c-1.9,0-3.9,1.3-4.9,2.3    c-1,1-10.6,10.6-11.8,11.8c-1.2,1.2-2.2,1.4-3.8,1.4L0,23.6 M10.4,30.4c1.6,0,2.5-0.2,3.8-1.4C15.4,27.9,25,18.4,26,17.3    c1-1,3.1-2.3,4.9-2.3h14.8c-0.7-1.7-1.5-3.3-2.6-4.7l-11.3,0c-1.6,0-3.1,0.9-4,1.7c-0.9,0.9-10.7,10.7-11.7,11.7    c0,0-1.7,2.1-5,2.1l-11,0c0.2,1.6,0.5,3.2,0.9,4.7L10.4,30.4z M15.5,37.3c1.6,0,2.5-0.2,3.8-1.4c1.4-1.4,10.7-10.8,11.8-12    c1-1,3-2.3,4.9-2.3l11.3,0c-0.1-1.7-0.4-3-0.9-4.6l-9.4,0c-1.6,0-3.2,0.9-4.1,1.7c-1.1,1-10.7,10.6-11.6,11.6c0,0-1.6,2.1-4.9,2.1    l-14.5,0c0.7,1.7,1.6,3.3,2.7,4.8L15.5,37.3z M6,39.3c4.3,4.8,10.6,7.9,17.7,7.9c13,0,23.5-10.7,23.6-23.6l-5.8,0    c-1.6,0-3.3,0.8-4.1,1.7c-0.9,0.9-10.6,10.9-11.6,11.8c0,0-1.7,2.1-5.1,2.1L6,39.3z M79.5,26.4c-0.9-1.5-2-3.7-7-5    c-5.2-1.3-7.3-1.8-8.8-2.1c-1.4-0.3-3.7-1.1-3.7-4.1c0-2.8,2.8-4.2,5.7-4.2c2.8,0,6.5,1.2,7.1,5.5h6.6V26.4z M114.5,6.3h-11.2    L97,30.7L90.7,6.3H79.5v7.8c-3.4-9-10.9-9.4-13.2-9.4c-9.8,0-13.3,6.1-13.3,10.6c0,7.2,6,9.5,7.6,9.9c1.4,0.4,8.5,2.1,9.9,2.5    c1.7,0.5,3.1,2,3.1,3.9c0,1.7-1.4,4.7-6.5,4.7c-5.1,0-7.6-2.8-8-6.2h-6.9c0,0-0.3,12.5,15.4,12.5c6.7,0,10.2-2.8,12-5.7v4.4h7    L86.2,15l7.2,26.2h7.1l7.2-26.2l-0.3,26.2h7v-6.5c1.6,3.2,5.3,7.8,13.2,7.8c9,0,13.5-5.6,14.2-12.6h-6.7c-0.5,3.4-3.5,6.1-7.5,6.1    c-1.1,0-8.9-0.6-8.9-12.5c0-8.2,4.2-12.9,8.9-12.9c1.5,0,6.4,0.6,7.1,6.5h6.6c-0.5-8.4-7.4-12.4-13.7-12.4    c-7.5,0-11.6,3.9-13.3,7.1V6.3z"/>
	</g>
</g>
<g>
	<path class="st0" d="M8.3,68.3H1.2v-9.6h7v1.2H2.5v3h5.3V64H2.5v3.2h5.8V68.3z"/>
	<path class="st0" d="M15.5,68.3H14l-1.7-2.6l-1.7,2.6H9.1l2.5-3.6l-2.3-3.4h1.5l1.6,2.5l1.6-2.5h1.4L13,64.7L15.5,68.3z"/>
	<path class="st0" d="M16.4,61.3h1.1v1h0c0.3-0.4,0.8-1.2,2.1-1.2c1.9,0,2.9,1.5,2.9,3.5c0,1.7-0.7,3.9-3.1,3.9   c-0.9,0-1.6-0.4-1.9-0.9h0v3.5h-1.2V61.3z M19.5,67.5c1.3,0,1.9-1.2,1.9-2.7c0-0.9-0.1-2.6-1.9-2.6c-1.7,0-1.9,1.8-1.9,3   C17.6,67,18.7,67.5,19.5,67.5z"/>
	<path class="st0" d="M29.9,66.1c0,0.3-0.4,1.3-1.2,1.9c-0.3,0.2-0.8,0.5-1.9,0.5c-2,0-3.1-1.5-3.1-3.5c0-2.2,1-3.9,3.4-3.9   c2,0,3,1.6,3,4.1h-5.1c0,1.5,0.7,2.3,2,2.3c1.1,0,1.8-0.9,1.8-1.4H29.9z M28.8,64.3c-0.1-1.1-0.5-2.1-2-2.1c-1.1,0-1.9,1-1.9,2.1   H28.8z"/>
	<path class="st0" d="M32.8,68.3h-1.2v-7h1.1v1.2h0c0.5-0.8,1.1-1.4,2-1.4c0.1,0,0.2,0,0.3,0v1.2h-0.4c-1.1,0-1.8,0.9-1.8,1.9V68.3z   "/>
	<path class="st0" d="M37.9,62.3v4.6c0,0.5,0.5,0.5,0.7,0.5H39v0.9c-0.4,0-0.8,0.1-0.9,0.1c-1.2,0-1.4-0.7-1.4-1.5v-4.6h-1v-1h1v-2   h1.2v2H39v1H37.9z"/>
	<path class="st0" d="M40.2,60v-1.3h1.2V60H40.2z M41.4,68.3h-1.2v-7h1.2V68.3z"/>
	<path class="st0" d="M47.1,63.3c0-0.4-0.2-1.2-1.7-1.2c-0.4,0-1.4,0.1-1.4,1c0,0.6,0.4,0.7,1.3,0.9l1.2,0.3c1.5,0.4,2,0.9,2,1.9   c0,1.4-1.2,2.3-2.8,2.3c-2.8,0-3-1.6-3-2.5h1.1c0,0.6,0.2,1.4,1.9,1.4c0.8,0,1.6-0.3,1.6-1.1c0-0.6-0.4-0.8-1.4-1l-1.4-0.3   c-1-0.2-1.6-0.7-1.6-1.7c0-1.5,1.3-2.2,2.7-2.2c2.5,0,2.7,1.9,2.7,2.2H47.1z"/>
	<path class="st0" d="M55.8,66.1c0,0.3-0.4,1.3-1.2,1.9c-0.3,0.2-0.8,0.5-1.9,0.5c-2,0-3.1-1.5-3.1-3.5c0-2.2,1-3.9,3.4-3.9   c2,0,3,1.6,3,4.1h-5.1c0,1.5,0.7,2.3,2,2.3c1.1,0,1.8-0.9,1.8-1.4H55.8z M54.7,64.3c-0.1-1.1-0.5-2.1-2-2.1c-1.1,0-1.9,1-1.9,2.1   H54.7z"/>
	<path class="st0" d="M67.6,65.1h-7.5v-1h7.5V65.1z"/>
	<path class="st0" d="M73.8,68.3h-1.3v-9.6h4.3c1.8,0,2.9,1.2,2.9,2.7c0,1.3-0.8,2.9-2.9,2.9h-3V68.3z M73.8,63.2h2.6   c1.2,0,2-0.4,2-1.7c0-1.2-0.8-1.6-1.9-1.6h-2.6V63.2z"/>
	<path class="st0" d="M80.6,63.5c0.1-1.7,1.2-2.3,2.9-2.3c0.6,0,2.6,0.2,2.6,2v4c0,0.3,0.1,0.4,0.4,0.4c0.1,0,0.3,0,0.4-0.1v0.9   c-0.2,0.1-0.4,0.1-0.6,0.1c-1,0-1.2-0.5-1.2-1.1c-0.5,0.5-1.2,1.1-2.5,1.1c-1.3,0-2.2-0.8-2.2-2c0-0.6,0.2-2,2.1-2.2l1.9-0.2   c0.3,0,0.6-0.1,0.6-0.8c0-0.7-0.5-1.1-1.6-1.1c-1.3,0-1.5,0.8-1.6,1.4H80.6z M84.9,64.8c-0.2,0.1-0.5,0.3-1.9,0.4   c-0.6,0.1-1.5,0.3-1.5,1.1c0,0.8,0.4,1.2,1.3,1.2c1.1,0,2.2-0.7,2.2-1.6V64.8z"/>
	<path class="st0" d="M92,63.3c0-0.4-0.2-1.2-1.7-1.2c-0.4,0-1.4,0.1-1.4,1c0,0.6,0.4,0.7,1.3,0.9l1.2,0.3c1.5,0.4,2,0.9,2,1.9   c0,1.4-1.2,2.3-2.8,2.3c-2.8,0-3-1.6-3-2.5h1.1c0,0.6,0.2,1.4,1.9,1.4c0.8,0,1.6-0.3,1.6-1.1c0-0.6-0.4-0.8-1.4-1l-1.4-0.3   c-1-0.2-1.6-0.7-1.6-1.7c0-1.5,1.3-2.2,2.7-2.2c2.5,0,2.7,1.9,2.7,2.2H92z"/>
	<path class="st0" d="M98.8,63.3c0-0.4-0.2-1.2-1.7-1.2c-0.4,0-1.4,0.1-1.4,1c0,0.6,0.4,0.7,1.3,0.9l1.2,0.3c1.5,0.4,2,0.9,2,1.9   c0,1.4-1.2,2.3-2.8,2.3c-2.8,0-3-1.6-3-2.5h1.1c0,0.6,0.2,1.4,1.9,1.4c0.8,0,1.6-0.3,1.6-1.1c0-0.6-0.4-0.8-1.4-1l-1.4-0.3   c-1-0.2-1.6-0.7-1.6-1.7c0-1.5,1.3-2.2,2.7-2.2c2.5,0,2.7,1.9,2.7,2.2H98.8z"/>
	<path class="st0" d="M101.5,60v-1.3h1.2V60H101.5z M102.7,68.3h-1.2v-7h1.2V68.3z"/>
	<path class="st0" d="M107.3,61.1c2.2,0,3.3,1.9,3.3,3.7c0,1.8-1,3.7-3.3,3.7s-3.3-1.9-3.3-3.7C104,63,105.1,61.1,107.3,61.1z    M107.3,67.5c1.7,0,2-1.7,2-2.7c0-0.9-0.3-2.7-2-2.7c-1.7,0-2,1.7-2,2.7C105.3,65.8,105.6,67.5,107.3,67.5z"/>
	<path class="st0" d="M117.6,68.3h-1.2V64c0-1.2-0.3-1.8-1.5-1.8c-0.7,0-1.9,0.4-1.9,2.3v3.8h-1.2v-7h1.1v1h0   c0.3-0.4,0.9-1.2,2.1-1.2c1.1,0,2.5,0.4,2.5,2.4V68.3z"/>
	<path class="st0" d="M129.7,65.1h-7.5v-1h7.5V65.1z"/>
	<path class="st0" d="M135.9,65.5l-1,2.8h-1.3l3.6-9.6h1.5l3.5,9.6h-1.4l-1-2.8H135.9z M139.3,64.4l-1.4-4.2h0l-1.5,4.2H139.3z"/>
	<path class="st0" d="M147.4,68.3v-1l0,0c-0.5,0.8-1.1,1.2-2.2,1.2c-1,0-2.3-0.5-2.3-2.2v-5h1.2V66c0,1.2,0.6,1.5,1.4,1.5   c1.5,0,1.9-1.3,1.9-2.3v-3.9h1.2v7H147.4z"/>
	<path class="st0" d="M151.7,62.3v4.6c0,0.5,0.5,0.5,0.7,0.5h0.4v0.9c-0.4,0-0.8,0.1-0.9,0.1c-1.2,0-1.4-0.7-1.4-1.5v-4.6h-1v-1h1   v-2h1.2v2h1.1v1H151.7z"/>
	<path class="st0" d="M156.9,61.1c2.2,0,3.3,1.9,3.3,3.7c0,1.8-1,3.7-3.3,3.7s-3.3-1.9-3.3-3.7C153.6,63,154.6,61.1,156.9,61.1z    M156.9,67.5c1.7,0,2-1.7,2-2.7c0-0.9-0.3-2.7-2-2.7c-1.7,0-2,1.7-2,2.7C154.8,65.8,155.2,67.5,156.9,67.5z"/>
	<path class="st0" d="M161.5,61.3h1.1v1h0c0.3-0.4,0.9-1.2,2.1-1.2c1.3,0,1.7,0.8,1.9,1.1c0.6-0.7,1.1-1.1,2.1-1.1   c0.8,0,2.2,0.4,2.2,2.4v4.9h-1.2v-4.5c0-1-0.3-1.6-1.3-1.6c-1,0-1.7,0.9-1.7,1.9v4.3h-1.2v-4.9c0-0.6-0.2-1.3-1.1-1.3   c-0.7,0-1.9,0.4-1.9,2.3v3.8h-1.2V61.3z"/>
	<path class="st0" d="M172.6,63.5c0.1-1.7,1.2-2.3,2.9-2.3c0.6,0,2.6,0.2,2.6,2v4c0,0.3,0.1,0.4,0.4,0.4c0.1,0,0.3,0,0.4-0.1v0.9   c-0.2,0.1-0.4,0.1-0.6,0.1c-1,0-1.2-0.5-1.2-1.1c-0.5,0.5-1.2,1.1-2.5,1.1c-1.3,0-2.2-0.8-2.2-2c0-0.6,0.2-2,2.1-2.2l1.9-0.2   c0.3,0,0.6-0.1,0.6-0.8c0-0.7-0.5-1.1-1.6-1.1c-1.3,0-1.5,0.8-1.6,1.4H172.6z M176.9,64.8c-0.2,0.1-0.5,0.3-1.9,0.4   c-0.6,0.1-1.5,0.3-1.5,1.1c0,0.8,0.4,1.2,1.3,1.2c1.1,0,2.2-0.7,2.2-1.6V64.8z"/>
	<path class="st0" d="M181.5,62.3v4.6c0,0.5,0.5,0.5,0.7,0.5h0.4v0.9c-0.4,0-0.8,0.1-0.9,0.1c-1.2,0-1.4-0.7-1.4-1.5v-4.6h-1v-1h1   v-2h1.2v2h1.1v1H181.5z"/>
	<path class="st0" d="M183.8,60v-1.3h1.2V60H183.8z M185,68.3h-1.2v-7h1.2V68.3z"/>
	<path class="st0" d="M189.6,61.1c2.2,0,3.3,1.9,3.3,3.7c0,1.8-1,3.7-3.3,3.7s-3.3-1.9-3.3-3.7C186.4,63,187.4,61.1,189.6,61.1z    M189.6,67.5c1.7,0,2-1.7,2-2.7c0-0.9-0.3-2.7-2-2.7c-1.7,0-2,1.7-2,2.7C187.6,65.8,187.9,67.5,189.6,67.5z"/>
	<path class="st0" d="M199.9,68.3h-1.2V64c0-1.2-0.3-1.8-1.5-1.8c-0.7,0-1.9,0.4-1.9,2.3v3.8h-1.2v-7h1.1v1h0   c0.3-0.4,0.9-1.2,2.1-1.2c1.1,0,2.5,0.4,2.5,2.4V68.3z"/>
</g>
</svg>
